<?xml version="1.0" encoding="utf-8"?>
<!-- Generator: Adobe Illustrator 16.0.0, SVG Export Plug-In . SVG Version: 6.00 Build 0)  -->
<!DOCTYPE svg PUBLIC "-//W3C//DTD SVG 1.0//EN" "http://www.w3.org/TR/2001/REC-SVG-20010904/DTD/svg10.dtd">
<svg version="1.0" id="Layer_1" xmlns="http://www.w3.org/2000/svg" xmlns:xlink="http://www.w3.org/1999/xlink" x="0px" y="0px"
	 width="538.595px" height="501.729px" viewBox="0 0 538.595 501.729" enable-background="new 0 0 538.595 501.729"
	 xml:space="preserve">
<g>
	<path fill-rule="evenodd" clip-rule="evenodd" fill="none" d="M0.091,108.746c0-35.086,0.044-70.172-0.082-105.257
		C0,0.595,0.593,0.008,3.486,0.013c59.985,0.107,119.97,0.081,179.955,0.081c-3.848,2.028-7.716,3.978-10.86,7.132
		c-17.274,17.326-17.182,53.267,0.229,70.393c10.973,10.793,26.381,10.011,36.758-1.447c18.448-20.367,15.469-64.195-11.575-76.078
		c47.858,0,95.717,0,143.576,0c-4.76,2.109-9.094,4.754-12.624,8.722c-15.217,17.11-15.638,48.428-0.802,66.415
		c10.853,13.155,26.926,13.63,38.684,1.433c18.584-19.279,16.344-65.182-11.677-76.57c59.823,0,119.646,0.035,179.47-0.094
		c3.322-0.008,3.991,0.651,3.976,3.974c-0.155,34.924-0.096,69.848-0.096,104.771c-7.198-9.919-15.831-11.2-25.645-3.644
		c-6.271,4.827-10.013,11.299-11.598,19.027c-1.468,7.154-0.481,13.803,5.818,18.201c6.511,4.543,12.921,2.191,18.965-1.708
		c6.131-3.957,9.289-10.154,12.459-16.354c0,124.335-0.019,248.67,0.091,373.005c0.004,3.638-0.818,4.459-4.456,4.457
		c-176.559-0.104-353.118-0.104-529.677,0c-3.636,0.002-4.46-0.818-4.457-4.457c0.11-124.658,0.091-249.316,0.091-373.975
		c1.249,2.621,2.293,5.363,3.785,7.836c3.888,6.445,9.16,11.247,16.752,12.931c7.856,1.743,14.55-2.427,16.564-10.246
		c2.521-9.787-2.718-22.459-11.998-29.23C17.517,98.986,6.85,96.943,0.091,108.746z M299.609,427.272
		c-0.136,12.456,0.958,22.571,3.907,32.374c10.391,34.524,41.772,47.954,70.56,39.081c26.736-8.24,45.565-27.115,56.832-52.811
		c5.336-12.173,7.451-25.384,9.854-38.408c7.081-38.399,11.643-77.315,24.207-114.574c8.45-25.061,16.173-50.019,31.803-72.336
		c21.311-30.429,16.732-62.429-10.104-88.356c-20.338-19.65-45.248-31.423-72.034-39.439c-18.078-5.41-36.453-8.539-55.441-5.647
		c-26.181,3.986-43.099,21.713-44.939,47.693c-1.72,24.276-0.082,48.414,4.323,72.316c3.476,18.85,10.511,36.897,11.5,56.371
		c1.152,22.684,0.699,45.216-3.205,67.569c-2.434,13.933-8.772,26.671-13.766,39.79C305.9,389.831,298.859,408.749,299.609,427.272z
		 M164.873,85.964c-4.032,0.198-8.093,0.156-12.091,0.636c-19.572,2.353-38.26,7.947-56.121,16.173
		c-20.289,9.345-39.265,20.773-53.171,38.748c-14.277,18.455-18.875,39.014-10.966,61.556c3.571,10.179,9.612,18.999,15.921,27.625
		c2.771,3.789,5.585,7.545,7.383,11.92c11.88,28.903,21.687,58.549,28.292,89.044c6.147,28.382,10.639,57.129,15.607,85.758
		c4.425,25.507,14.401,47.877,35.119,64.428c13.315,10.636,27.287,19.367,45.385,19.164c24.822-0.277,44.858-13.537,53.242-36.969
		c7.694-21.506,7.063-43.449,1.642-65.383c-2.488-10.066-6.319-19.72-10.272-29.248c-9.036-21.784-15.831-43.893-16.502-67.813
		c-0.646-23.01-1.363-46.03,5.155-68.278c9.283-31.688,12.721-63.883,10.908-96.708c-0.968-17.516-6.773-32.566-23.385-41.386
		C189.715,89.23,177.995,84.921,164.873,85.964z M427.252,47.917c0.05-5.767-1.176-11.246-3.829-16.351
		c-7.523-14.476-23.22-16.081-32.91-2.977c-9.39,12.695-11.021,26.739-4.256,41.15c6.608,14.078,22.355,15.792,32.325,3.787
		C424.729,66.124,427.207,57.416,427.252,47.917z M427.663,73.543c0,1.291-0.06,2.583,0.01,3.87
		c0.54,9.966,6.146,18.282,13.99,20.796c7.551,2.421,16.397-1.196,22.677-9.282c6.879-8.86,9.614-19.003,8.237-29.991
		c-1.115-8.901-4.761-16.737-14.276-19.435c-9.359-2.654-16.301,2.21-21.873,8.993C430.521,55.685,427.607,64.158,427.663,73.543z
		 M156.359,53.494c0.066-10.187-4.253-21.441-10.348-27.492c-9.602-9.534-22.311-8.171-29.585,3.171
		c-9.061,14.129-5.801,36.533,6.908,47.484c8.45,7.282,19.566,6.076,26.342-2.8C154.396,67.675,155.784,60.459,156.359,53.494z
		 M111.048,73.934c-0.527-13.025-4.704-24.381-15.977-31.927c-9.382-6.281-19.702-3.709-25.398,5.804
		c-8.829,14.745-2.196,39.875,12.749,48.292c9.662,5.443,19.828,2.564,25.129-7.224C110.054,84.257,111.272,79.275,111.048,73.934z
		 M46.046,65.762c-7.798-0.082-13.659,4.678-15.904,12.917c-3.647,13.384,3.064,30.25,14.927,37.516
		c10.398,6.368,21.235,2.421,25.146-9.155c4.441-13.146-2.835-32.006-14.967-38.724C52.396,66.737,49.385,65.638,46.046,65.762z
		 M509.563,88.065c0.08-10.534-4.021-18.402-10.646-21.081c-7.681-3.105-14.396-0.528-19.986,4.747
		c-9.127,8.609-13.301,19.332-11.413,31.896c2.187,14.552,15.373,20.194,27.368,11.741
		C504.723,108.434,508.598,98.252,509.563,88.065z"/>
	<path fill-rule="evenodd" clip-rule="evenodd" d="M197.993,0.094c27.044,11.883,30.023,55.711,11.575,76.078
		c-10.377,11.458-25.786,12.24-36.758,1.447c-17.41-17.126-17.502-53.067-0.229-70.393c3.144-3.154,7.012-5.104,10.86-7.132
		C188.292,0.094,193.142,0.094,197.993,0.094z M219.328,37.437c0.117-5.16-2.234-14.573-7.675-23.156
		c-9.006-14.205-24.181-17.126-36.337-6.99c-18.409,15.353-18.24,55.112,0.299,70.389c9.902,8.16,21.901,7.723,31.004-1.297
		C216.059,67.029,219.176,55.253,219.328,37.437z"/>
	<path fill-rule="evenodd" clip-rule="evenodd" d="M355.149,0.094c28.021,11.388,30.261,57.291,11.677,76.57
		c-11.758,12.197-27.831,11.722-38.684-1.433c-14.836-17.987-14.415-49.304,0.802-66.415c3.53-3.968,7.864-6.613,12.624-8.722
		C346.096,0.094,350.622,0.094,355.149,0.094z M319.313,46.776c-0.028,7.566,2.845,18.727,11.049,28.13
		c9.804,11.238,24.493,11.6,34.818,0.791c15.471-16.196,15.957-47.582,1.01-65.265c-9.869-11.674-24.66-12.255-35.073-1.163
		C322.47,18.481,319.346,29.801,319.313,46.776z"/>
	<path fill-rule="evenodd" clip-rule="evenodd" d="M538.499,124.267c-3.17,6.201-6.328,12.398-12.459,16.354
		c-6.044,3.899-12.454,6.251-18.965,1.708c-6.3-4.397-7.286-11.046-5.818-18.201c1.585-7.728,5.326-14.2,11.598-19.027
		c9.813-7.557,18.446-6.275,25.645,3.644C538.499,113.919,538.499,119.093,538.499,124.267z M502.773,128.365
		c-0.115,12.33,9.717,18.275,20.292,11.901c9.694-5.841,14.735-14.655,14.197-26.18c-0.415-8.86-7.745-13.798-16.256-11.164
		C510.829,106.072,502.877,117.167,502.773,128.365z"/>
	<path fill-rule="evenodd" clip-rule="evenodd" d="M0.091,108.746c6.758-11.803,17.426-9.76,25.104-4.157
		c9.28,6.771,14.52,19.443,11.998,29.23c-2.014,7.819-8.708,11.988-16.564,10.246c-7.592-1.684-12.864-6.486-16.752-12.931
		c-1.492-2.473-2.537-5.215-3.785-7.836C0.091,118.446,0.091,113.596,0.091,108.746z M35.82,128.775
		c0.026-10.585-6.948-21.422-16.351-25.405c-9.504-4.026-18.048,1.293-18.165,11.542c-0.13,11.485,4.986,20.204,15.086,25.601
		C26.726,146.034,35.792,140.41,35.82,128.775z"/>
	<path fill-rule="evenodd" clip-rule="evenodd" d="M299.609,427.272c-0.75-18.523,6.291-37.441,13.497-56.376
		c4.993-13.119,11.332-25.857,13.766-39.79c3.904-22.354,4.357-44.886,3.205-67.569c-0.989-19.474-8.024-37.521-11.5-56.371
		c-4.405-23.903-6.043-48.04-4.323-72.316c1.841-25.98,18.759-43.708,44.939-47.693c18.988-2.891,37.363,0.238,55.441,5.647
		c26.786,8.016,51.696,19.789,72.034,39.439c26.836,25.927,31.414,57.927,10.104,88.356c-15.63,22.317-23.353,47.275-31.803,72.336
		c-12.564,37.259-17.126,76.175-24.207,114.574c-2.403,13.024-4.519,26.235-9.854,38.408c-11.267,25.695-30.096,44.57-56.832,52.811
		c-28.787,8.873-60.169-4.557-70.56-39.081C300.567,449.843,299.474,439.728,299.609,427.272z M301.852,427.606
		c-0.318,11.48,0.514,21.271,3.189,30.847c10.321,36.926,45.652,45.88,68.352,38.905c8.922-2.742,16.933-7.319,24.264-12.952
		c16.238-12.476,28.907-27.574,34.584-47.806c4.943-17.615,8.167-35.584,10.81-53.62c5.874-40.085,15.351-79.228,28.879-117.411
		c5.303-14.964,10.854-29.712,21.148-42.221c3.247-3.947,5.723-8.632,8.003-13.252c5.31-10.755,8.106-22.059,6.56-34.208
		c-2.564-20.136-13.339-35.389-28.521-47.93c-22.121-18.272-47.717-29.535-75.404-36.129c-15.454-3.68-31.338-6.335-46.972-2.05
		c-28.121,7.706-37.642,19.935-39.942,41.408c-3.153,29.457-1.638,58.971,6.618,87.415c10.265,35.364,11.081,70.935,6.492,106.967
		c-2.128,16.705-9.729,31.758-15.529,47.317C307.59,391.106,300.537,409.197,301.852,427.606z"/>
	<path fill-rule="evenodd" clip-rule="evenodd" d="M164.873,85.964c13.122-1.043,24.842,3.267,36.146,9.268
		c16.611,8.819,22.417,23.87,23.385,41.386c1.813,32.825-1.625,65.019-10.908,96.708c-6.518,22.248-5.801,45.268-5.155,68.278
		c0.671,23.921,7.466,46.029,16.502,67.813c3.953,9.528,7.784,19.182,10.272,29.248c5.421,21.934,6.052,43.877-1.642,65.383
		c-8.384,23.432-28.42,36.691-53.242,36.969c-18.098,0.203-32.07-8.528-45.385-19.164c-20.718-16.551-30.694-38.921-35.119-64.428
		c-4.968-28.629-9.46-57.376-15.607-85.758c-6.605-30.495-16.412-60.141-28.292-89.044c-1.798-4.375-4.612-8.131-7.383-11.92
		c-6.309-8.627-12.35-17.447-15.921-27.625c-7.909-22.542-3.311-43.102,10.966-61.556c13.906-17.975,32.882-29.402,53.171-38.748
		c17.861-8.227,36.548-13.821,56.121-16.173C156.78,86.12,160.841,86.162,164.873,85.964z M223.052,154.32
		c-0.175-8.688-0.034-15.624-1.022-22.542c-1.666-11.667-4.965-22.577-14.769-30.056c-11.607-8.855-24.775-13.996-39.513-13.96
		c-26.37,0.063-51,7.429-74.551,18.754c-18.821,9.05-36.275,20.162-48.968,37.153c-14.413,19.295-18.075,40.366-8.274,62.983
		c3.618,8.349,8.677,15.859,14.095,23.128c3.39,4.547,6.39,9.28,8.561,14.582c19.652,47.991,31.262,98.054,38.779,149.202
		c2.019,13.738,4.691,27.365,8.399,40.773c7.811,28.25,26.288,47.506,51.988,59.912c20.053,9.68,39.699,6.366,57.012-6.862
		c14.802-11.311,20.18-27.947,21.733-45.956c1.899-22.016-2.065-42.979-10.253-63.482c-6.098-15.271-13.105-30.314-16.425-46.555
		c-2.494-12.198-3.114-24.621-3.628-37.065c-0.878-21.253-0.186-42.384,5.866-62.866
		C219.704,205.659,222.738,179.334,223.052,154.32z"/>
	<path fill-rule="evenodd" clip-rule="evenodd" d="M427.252,47.917c-0.045,9.499-2.523,18.207-8.67,25.609
		c-9.97,12.005-25.717,10.292-32.325-3.787c-6.766-14.411-5.134-28.455,4.256-41.15c9.69-13.104,25.387-11.499,32.91,2.977
		C426.076,36.671,427.302,42.15,427.252,47.917z M407.262,21.673c-6.711,0.093-11.286,2.848-14.627,7.177
		c-9.12,11.822-10.973,25.026-5.288,38.743c5.974,14.408,20.515,16.151,30.346,4.08c8.566-10.519,10.254-28.391,3.635-40.172
		C418.068,25.701,413.423,21.761,407.262,21.673z"/>
	<path fill-rule="evenodd" clip-rule="evenodd" d="M427.663,73.543c-0.056-9.385,2.858-17.858,8.765-25.048
		c5.572-6.783,12.514-11.647,21.873-8.993c9.516,2.698,13.161,10.534,14.276,19.435c1.377,10.988-1.358,21.13-8.237,29.991
		c-6.279,8.086-15.126,11.703-22.677,9.282c-7.844-2.514-13.45-10.83-13.99-20.796C427.604,76.126,427.663,74.833,427.663,73.543z
		 M453.331,40.947c-3.829-0.171-7.437,1.514-10.757,3.975c-11.816,8.759-16.747,29.381-10.188,42.576
		c4.767,9.591,14.484,12.29,23.61,6.558c13.781-8.658,19.414-31.262,11.226-45.26C464.233,43.688,459.914,40.689,453.331,40.947z"/>
	<path fill-rule="evenodd" clip-rule="evenodd" d="M156.359,53.494c-0.576,6.965-1.964,14.181-6.683,20.363
		c-6.775,8.876-17.892,10.082-26.342,2.8c-12.709-10.951-15.969-33.355-6.908-47.484c7.274-11.342,19.983-12.705,29.585-3.171
		C152.106,32.053,156.426,43.308,156.359,53.494z M154.198,51.339c0.061-7.372-2.371-15.745-8.361-22.83
		c-7.901-9.348-19.778-9.17-26.896,0.272c-9.811,13.016-6.611,37.079,6.254,47.043c6.954,5.386,15.151,4.842,21.375-1.424
		C152.423,68.506,154.171,61.144,154.198,51.339z"/>
	<path fill-rule="evenodd" clip-rule="evenodd" d="M111.048,73.934c0.224,5.342-0.994,10.323-3.498,14.945
		c-5.301,9.788-15.467,12.667-25.129,7.224c-14.944-8.417-21.578-33.547-12.749-48.292c5.697-9.513,16.016-12.085,25.398-5.804
		C106.344,49.553,110.521,60.908,111.048,73.934z M109.432,73.859c-1.04-11.741-4.247-22.386-14.25-29.565
		C85,36.986,73.312,40.963,69.312,52.866c-2.102,6.255-2.544,12.614-0.899,19.039c2.569,10.031,7.112,18.737,16.917,23.5
		c7.119,3.458,14.623,1.266,19.196-5.197C108.028,85.256,108.863,79.556,109.432,73.859z"/>
	<path fill-rule="evenodd" clip-rule="evenodd" d="M46.046,65.764c3.339-0.126,6.35,0.973,9.203,2.552
		c12.131,6.718,19.408,25.577,14.967,38.724c-3.911,11.577-14.748,15.523-25.146,9.155C33.207,108.93,26.495,92.064,30.142,78.68
		C32.387,70.44,38.249,65.681,46.046,65.764z M69.748,98.435c-0.926-11.993-4.954-22.378-15.994-28.678
		c-9.059-5.169-17.913-1.671-21.379,8.099c-4.535,12.785,2.704,31.119,14.73,37.305c9.41,4.839,18.382,1.07,21.431-9.034
		C69.284,103.647,69.867,101.125,69.748,98.435z"/>
	<path fill-rule="evenodd" clip-rule="evenodd" d="M509.563,88.065c-0.965,10.187-4.84,20.368-14.678,27.302
		c-11.995,8.453-25.182,2.812-27.368-11.741c-1.888-12.564,2.286-23.287,11.413-31.896c5.59-5.274,12.306-7.852,19.986-4.747
		C505.542,69.664,509.643,77.532,509.563,88.065z M507.475,87.896c-0.139-2.595-0.105-4.549-0.369-6.463
		c-1.655-12.017-12.532-17.318-22.993-11.248c-11.176,6.483-17.718,22.784-14.216,35.417c3.082,11.116,12.991,15.18,22.682,9.011
		C502.503,108.295,506.834,98.744,507.475,87.896z"/>
	<path fill-rule="evenodd" clip-rule="evenodd" fill="none" d="M219.328,37.437c-0.152,17.816-3.27,29.592-12.709,38.946
		c-9.103,9.02-21.102,9.457-31.004,1.297c-18.539-15.276-18.708-55.036-0.299-70.389c12.156-10.137,27.331-7.215,36.337,6.99
		C217.094,22.864,219.445,32.277,219.328,37.437z"/>
	<path fill-rule="evenodd" clip-rule="evenodd" fill="none" d="M319.313,46.776c0.032-16.975,3.156-28.295,11.804-37.507
		c10.413-11.092,25.204-10.511,35.073,1.163c14.947,17.684,14.461,49.069-1.01,65.265c-10.325,10.809-25.015,10.447-34.818-0.791
		C322.158,65.503,319.285,54.343,319.313,46.776z"/>
	<path fill-rule="evenodd" clip-rule="evenodd" fill="none" d="M502.773,128.365c0.104-11.199,8.056-22.293,18.233-25.442
		c8.511-2.635,15.841,2.303,16.256,11.164c0.538,11.525-4.503,20.338-14.197,26.18C512.49,146.64,502.658,140.695,502.773,128.365z"
		/>
	<path fill-rule="evenodd" clip-rule="evenodd" fill="none" d="M35.82,128.775c-0.029,11.635-9.094,17.258-19.429,11.737
		c-10.101-5.397-15.216-14.116-15.086-25.601c0.116-10.249,8.66-15.568,18.165-11.542C28.872,107.354,35.847,118.19,35.82,128.775z"
		/>
	<path fill-rule="evenodd" clip-rule="evenodd" fill="none" d="M301.852,427.606c-1.314-18.409,5.738-36.5,12.529-54.721
		c5.8-15.56,13.401-30.612,15.529-47.317c4.589-36.032,3.772-71.603-6.492-106.967c-8.256-28.444-9.771-57.958-6.618-87.415
		c2.301-21.473,11.821-33.703,39.942-41.408c15.634-4.285,31.518-1.63,46.972,2.05c27.688,6.594,53.283,17.857,75.404,36.129
		c15.183,12.542,25.957,27.794,28.521,47.93c1.547,12.15-1.25,23.453-6.56,34.208c-2.28,4.62-4.756,9.305-8.003,13.252
		c-10.295,12.509-15.846,27.257-21.148,42.221c-13.528,38.184-23.005,77.326-28.879,117.411c-2.643,18.036-5.866,36.005-10.81,53.62
		c-5.677,20.231-18.346,35.33-34.584,47.806c-7.331,5.633-15.342,10.21-24.264,12.952c-22.699,6.975-58.03-1.979-68.352-38.905
		C302.365,448.877,301.533,439.086,301.852,427.606z"/>
	<path fill-rule="evenodd" clip-rule="evenodd" fill="none" d="M223.052,154.32c-0.313,25.014-3.348,51.339-10.971,77.142
		c-6.051,20.482-6.744,41.613-5.866,62.866c0.514,12.444,1.134,24.867,3.628,37.065c3.32,16.24,10.328,31.284,16.425,46.555
		c8.188,20.503,12.152,41.467,10.253,63.482c-1.553,18.009-6.931,34.646-21.733,45.956c-17.313,13.229-36.959,16.542-57.012,6.862
		c-25.7-12.406-44.177-31.662-51.988-59.912c-3.708-13.408-6.38-27.035-8.399-40.773c-7.518-51.147-19.127-101.211-38.779-149.202
		c-2.171-5.302-5.171-10.035-8.561-14.582c-5.418-7.269-10.477-14.78-14.095-23.128c-9.801-22.617-6.139-43.688,8.274-62.983
		c12.693-16.991,30.147-28.103,48.968-37.153c23.551-11.325,48.182-18.691,74.551-18.754c14.737-0.035,27.905,5.105,39.513,13.96
		c9.804,7.479,13.103,18.389,14.769,30.056C223.018,138.696,222.876,145.632,223.052,154.32z"/>
	<path fill-rule="evenodd" clip-rule="evenodd" fill="none" d="M407.262,21.673c6.161,0.088,10.807,4.028,14.065,9.828
		c6.619,11.781,4.932,29.653-3.635,40.172c-9.831,12.071-24.372,10.328-30.346-4.08c-5.685-13.716-3.832-26.92,5.288-38.743
		C395.976,24.521,400.551,21.766,407.262,21.673z"/>
	<path fill-rule="evenodd" clip-rule="evenodd" fill="none" d="M453.331,40.947c6.583-0.257,10.902,2.741,13.891,7.848
		c8.188,13.998,2.556,36.602-11.226,45.26c-9.126,5.732-18.844,3.033-23.61-6.558c-6.559-13.194-1.628-33.816,10.188-42.576
		C445.895,42.461,449.502,40.775,453.331,40.947z"/>
	<path fill-rule="evenodd" clip-rule="evenodd" fill="none" d="M154.198,51.339c-0.026,9.805-1.774,17.167-7.628,23.062
		c-6.223,6.266-14.42,6.81-21.375,1.424c-12.866-9.964-16.065-34.027-6.254-47.043c7.118-9.442,18.996-9.62,26.896-0.272
		C151.827,35.594,154.259,43.967,154.198,51.339z"/>
	<path fill-rule="evenodd" clip-rule="evenodd" fill="none" d="M109.432,73.859c-0.569,5.697-1.404,11.397-4.906,16.348
		c-4.573,6.463-12.077,8.655-19.196,5.197c-9.806-4.764-14.349-13.47-16.917-23.5c-1.645-6.424-1.202-12.784,0.899-19.039
		c4-11.903,15.688-15.88,25.87-8.572C105.185,51.473,108.392,62.119,109.432,73.859z"/>
	<path fill-rule="evenodd" clip-rule="evenodd" fill="none" d="M69.748,98.435c0.119,2.689-0.464,5.212-1.212,7.692
		c-3.048,10.104-12.021,13.873-21.431,9.034c-12.026-6.186-19.266-24.52-14.73-37.305c3.466-9.77,12.32-13.268,21.379-8.099
		C64.794,76.057,68.822,86.442,69.748,98.435z"/>
	<path fill-rule="evenodd" clip-rule="evenodd" fill="none" d="M507.475,87.896c-0.641,10.848-4.972,20.399-14.896,26.717
		c-9.69,6.168-19.6,2.105-22.682-9.011c-3.502-12.632,3.04-28.934,14.216-35.417c10.461-6.07,21.338-0.769,22.993,11.248
		C507.369,83.347,507.336,85.302,507.475,87.896z"/>
</g>
</svg>
